HIERARCHY
ROOT Hips
{
    OFFSET 0.000000 0.000000 0.000000
    CHANNELS 6 Xposition Yposition Zposition Zrotation Xrotation Yrotation
    JOINT Spine
    {
        OFFSET -0.000000 7.856138 0.000000
        CHANNELS 3 Zrotation Xrotation Yrotation
        JOINT Spine1
        {
            OFFSET -0.000000 20.830866 0.000000
            CHANNELS 3 Zrotation Xrotation Yrotation
            JOINT Neck
            {
                OFFSET -0.000000 20.745317 1.885938
                CHANNELS 3 Zrotation Xrotation Yrotation
                JOINT Head
                {
                    OFFSET -0.000000 13.412918 -1.916131
                    CHANNELS 3 Zrotation Xrotation Yrotation
                    End Site
                    {
                        OFFSET -0.000000 23.951641 0.000000
                    }
                }
            }
            JOINT LeftShoulder
            {
                OFFSET 3.826675 19.078362 -0.073511
                CHANNELS 3 Zrotation Xrotation Yrotation
                JOINT LeftArm
                {
                    OFFSET 10.442133 0.000000 0.000000
                    CHANNELS 3 Zrotation Xrotation Yrotation
                    JOINT LeftForeArm
                    {
                        OFFSET 37.051945 0.000000 0.000000
                        CHANNELS 3 Zrotation Xrotation Yrotation
                        JOINT LeftHand
                        {
                            OFFSET 24.394852 0.000000 0.000000
                            CHANNELS 3 Zrotation Xrotation Yrotation
                            End Site
                            {
                                OFFSET 14.370985 0.000000 0.000000
                            }
                        }
                    }
                }
            }
            JOINT RightShoulder
            {
                OFFSET -3.827599 19.078362 -0.073511
                CHANNELS 3 Zrotation Xrotation Yrotation
                JOINT RightArm
                {
                    OFFSET -10.442133 0.000000 0.000000
                    CHANNELS 3 Zrotation Xrotation Yrotation
                    JOINT RightForeArm
                    {
                        OFFSET -37.051945 0.000000 0.000000
                        CHANNELS 3 Zrotation Xrotation Yrotation
                        JOINT RightHand
                        {
                            OFFSET -24.394852 0.000000 0.000000
                            CHANNELS 3 Zrotation Xrotation Yrotation
                            End Site
                            {
                                OFFSET -14.370985 0.000000 0.000000
                            }
                        }
                    }
                }
            }
        }
    }
    JOINT LeftUpLeg
    {
        OFFSET 9.580656 0.000000 0.000000
        CHANNELS 3 Zrotation Xrotation Yrotation
        JOINT LeftLeg
        {
            OFFSET -0.000000 -43.769192 0.000000
            CHANNELS 3 Zrotation Xrotation Yrotation
            JOINT LeftFoot
            {
                OFFSET -0.000000 -42.531967 0.000000
                CHANNELS 3 Zrotation Xrotation Yrotation
                JOINT LeftToeBase
                {
                    OFFSET -0.000000 -6.227426 14.370985
                    CHANNELS 3 Zrotation Xrotation Yrotation
                    End Site
                    {
                        OFFSET -0.000000 0.000000 3.832262
                    }
                }
            }
        }
    }
    JOINT RightUpLeg
    {
        OFFSET -9.580656 0.000000 0.000000
        CHANNELS 3 Zrotation Xrotation Yrotation
        JOINT RightLeg
        {
            OFFSET -0.000000 -43.769192 0.000000
            CHANNELS 3 Zrotation Xrotation Yrotation
            JOINT RightFoot
            {
                OFFSET -0.000000 -42.531967 0.000000
                CHANNELS 3 Zrotation Xrotation Yrotation
                JOINT RightToeBase
                {
                    OFFSET -0.000000 -6.227426 14.370985
                    CHANNELS 3 Zrotation Xrotation Yrotation
                    End Site
                    {
                        OFFSET -0.000000 0.000000 3.832262
                    }
                }
            }
        }
    }
}
MOTION
Frames:    5
Frame Time:    0.008333
-15.674106    92.684021    25.520012    -7.991966    1.684848    85.775520    2.045384    5.743813    -4.044023    -3.108616    2.859489    -3.863748    5.902490    5.510374    -6.263264    7.205123    -19.731035    -4.875471    21.679028    -13.731487    0.192357    -14.689481    -21.225000    -41.994682    17.903313    -41.962875    -31.147684    49.750599    -15.786359    50.192730    4.077665    16.120789    11.345314    32.321320    56.483303    31.489220    0.714042    -23.839832    43.081009    -22.718166    -22.029663    -11.149701    3.739801    -14.733913    1.831325    -7.033067    14.757134    4.073576    3.009732    -8.511168    23.411015    0.000000    0.000000    0.000000    -6.038381    -21.644302    1.306600    3.926183    21.854990    0.359230    1.465881    -7.504758    -13.089622    0.000000    0.000000    0.000000    
-15.648335    92.686317    25.520117    -7.983591    1.709358    85.622620    2.033397    5.756689    -4.009665    -3.102562    2.823822    -3.830903    5.847348    5.522763    -6.278374    7.206729    -19.701658    -4.886345    21.643583    -13.854780    0.375193    -15.320671    -21.917091    -42.041737    14.712234    -43.263367    -32.223621    51.518894    -16.855803    50.748848    4.059195    16.135239    11.378164    32.358536    56.490486    31.437244    0.755323    -23.817574    43.105721    -22.783764    -22.010695    -11.178854    3.746156    -14.671577    1.790697    -7.071973    14.697820    4.364595    3.009495    -8.515648    23.315220    0.000000    0.000000    0.000000    -6.009668    -21.646639    1.378154    3.900530    21.844191    0.444190    1.525867    -7.490334    -13.080897    0.000000    0.000000    0.000000    
-15.625994    92.689537    25.519461    -7.994372    1.732563    85.488724    2.001429    5.748946    -3.963972    -3.069188    2.795482    -3.788530    5.732756    5.758534    -6.313555    7.386004    -20.020142    -4.824077    21.604563    -13.954438    0.557561    -15.765037    -22.465260    -42.161049    11.754215    -43.710648    -33.259998    54.546909    -16.282314    50.846149    4.053154    16.138565    11.389111    32.393414    56.514210    31.353912    0.814635    -23.817125    43.150089    -22.831741    -22.028566    -11.174583    3.749555    -14.648566    1.819715    -7.086308    14.687637    4.465970    2.995273    -8.536556    23.316084    0.000000    0.000000    0.000000    -5.989211    -21.674658    1.425148    3.878356    21.854845    0.552630    1.492387    -7.491282    -13.099989    0.000000    0.000000    0.000000    
-15.596621    92.692688    25.515026    -7.993199    1.752015    85.352341    1.990899    5.743032    -3.911252    -3.071652    2.766968    -3.737133    5.836097    5.612304    -6.333408    7.130429    -19.764351    -4.957627    21.567129    -14.052270    0.726235    -16.242037    -22.807087    -42.238949    9.673626    -43.479374    -34.349594    56.964546    -15.582511    49.950287    4.066950    16.166063    11.397336    32.433140    56.517906    31.261833    0.865779    -23.804132    43.185734    -22.945633    -22.019676    -11.195783    3.741420    -14.600895    1.841415    -7.080208    14.675559    4.407701    3.029714    -8.559990    23.477571    0.000000    0.000000    0.000000    -5.972122    -21.678833    1.477574    3.865435    21.839914    0.620521    1.509456    -7.463764    -13.072939    0.000000    0.000000    0.000000    
-15.570230    92.697357    25.514427    -8.001585    1.764909    85.229218    1.936060    5.742432    -3.843510    -2.979783    2.716105    -3.675697    5.774854    5.622220    -6.371156    7.104072    -19.712749    -5.001638    21.454887    -14.118023    0.872906    -16.498337    -23.077892    -42.327801    8.668667    -42.435238    -34.980206    59.115753    -13.423794    49.489807    4.031466    16.196819    11.382616    32.492794    56.514793    31.157555    0.939011    -23.782801    43.242733    -23.077669    -22.011940    -11.201030    3.749668    -14.562435    1.851088    -7.091381    14.657671    4.357600    3.033571    -8.577663    23.628277    0.000000    0.000000    0.000000    -5.948346    -21.689003    1.507792    3.847049    21.825850    0.707797    1.542503    -7.443636    -13.062137    0.000000    0.000000    0.000000    
